<svg xmlns="http://www.w3.org/2000/svg" viewBox="0 0 40 40" fill="none">
  <defs>
    <linearGradient id="logo-grad" x1="0" y1="0" x2="40" y2="40">
      <stop offset="0%" stop-color="#3b82f6" />
      <stop offset="100%" stop-color="#06b6d4" />
    </linearGradient>
  </defs>

  <!-- Base arredondada com gradiente -->
  <rect width="40" height="40" rx="11" fill="url(#logo-grad)" />

  <!-- Dente estilizado: arco superior + duas raízes -->
  <path
    d="M20 10c-5 0-7.5 3-7.5 6.5 0 3.5 1.5 6 2.2 9 .3 1.5.5 3.5.9 4.9.3 1 1.6.9 1.9-.1l1.3-5.1c.2-.9 2.2-.9 2.4 0l1.3 5.1c.3 1 1.6 1.1 1.9.1.4-1.4.6-3.4.9-4.9.7-3 2.2-5.5 2.2-9C27.5 13 25 10 20 10Z"
    fill="white"
    fill-opacity="0.96"
  />
</svg>
